<svg width="684.312500" height="408.000000" viewBox="0 0 684.312 408" fill="none" xmlns="http://www.w3.org/2000/svg" xmlns:xlink="http://www.w3.org/1999/xlink">
	<desc>
			Created with Pixso.
	</desc>
	<defs>
		<linearGradient id="paint_linear_5_17_0" x1="506.402344" y1="28.000031" x2="183.312485" y2="284.000031" gradientUnits="userSpaceOnUse">
			<stop stop-color="#00662E"/>
			<stop offset="1.000000" stop-color="#00E667"/>
		</linearGradient>
		<linearGradient id="paint_linear_6_4_0" x1="344.312500" y1="0.000000" x2="344.312500" y2="408.000000" gradientUnits="userSpaceOnUse">
			<stop stop-color="#C4C4C4" stop-opacity="0.000000"/>
			<stop offset="1.000000" stop-color="#C4C4C4" stop-opacity="0.000000"/>
		</linearGradient>
	</defs>
	<path id="Слияние" d="M323.403 106.5C321.403 70 352.903 32 391.403 28.5L506.403 28L468.403 67.5L392.403 67.5C382.242 69.7303 374.65 74.9047 369.403 81.5C364.294 87.9214 361.411 95.7057 360.95 105.201L387.312 131.5L311.606 207.706L385.787 207.706C402.896 203.248 409.729 197.309 416.482 189.376C423.235 181.443 427.05 175.505 430.069 155.688L430.069 104.661L468.312 68L468.312 153.706C465.796 200.771 437.617 233.468 397.864 243.872L437.617 284L383.774 284L311.456 207.857L235.812 284L183.312 284L359.262 106.5L323.403 106.5Z" clip-rule="evenodd" fill="url(#paint_linear_5_17_0)" fill-opacity="1.000000" fill-rule="evenodd"/>
	<path id="АВИСПРОТЕИН" d="M46.1719 357.109L20.625 357.109L12.4688 373L0 373L36.8438 304.75L47.25 304.75L60.4688 373L48.8438 373L46.1719 357.109ZM25.5 347.547L44.625 347.547L39.9844 319.328L25.5 347.547ZM68.5781 373L80.4375 304.75L101.391 304.797C108.766 304.828 114.305 306.43 118.008 309.602C121.711 312.773 123.344 317.172 122.906 322.797C122.344 329.422 118.297 334.406 110.766 337.75C113.578 338.75 115.75 340.578 117.281 343.234C118.812 345.891 119.469 349.062 119.25 352.75C118.812 359 116.305 363.938 111.727 367.562C107.148 371.188 101.109 373 93.6094 373L68.5781 373ZM85.5 342.203L81.7969 363.531L93.9375 363.578C97.5938 363.578 100.703 362.609 103.266 360.672C105.828 358.734 107.344 356.078 107.812 352.703C108.25 349.484 107.766 346.969 106.359 345.156C104.953 343.344 102.625 342.375 99.375 342.25L85.5 342.203ZM87 333.484L97.6406 333.531C101.453 333.531 104.562 332.625 106.969 330.812C109.375 329 110.797 326.547 111.234 323.453C112.016 317.609 109.062 314.578 102.375 314.359L90.3281 314.312L87 333.484ZM179.812 304.75L191.766 304.75L179.906 373L168.328 373L176.672 325.094L139.688 373L127.781 373L139.641 304.75L151.219 304.75L142.875 352.703L179.812 304.75ZM248.25 350.734C247.094 357.859 243.891 363.539 238.641 367.773C233.391 372.008 227 374.062 219.469 373.938C215.125 373.844 211.32 372.812 208.055 370.844C204.789 368.875 202.234 366.008 200.391 362.242C198.547 358.477 197.516 354.219 197.297 349.469C197.109 345.906 197.547 341.055 198.609 334.914C199.672 328.773 201.711 323.266 204.727 318.391C207.742 313.516 211.445 309.844 215.836 307.375C220.227 304.906 225.109 303.719 230.484 303.812C237.266 303.938 242.633 306.07 246.586 310.211C250.539 314.352 252.641 320.062 252.891 327.344L241.406 327.344C241.25 322.469 240.227 318.945 238.336 316.773C236.445 314.602 233.641 313.469 229.922 313.375C224.828 313.219 220.562 315.047 217.125 318.859C213.688 322.672 211.375 328.219 210.188 335.5L209.25 341.734L208.828 346.516C208.578 349.734 208.805 352.758 209.508 355.586C210.211 358.414 211.453 360.57 213.234 362.055C215.016 363.539 217.281 364.328 220.031 364.422C228.75 364.766 234.344 360.234 236.812 350.828L248.25 350.734ZM307.828 373L296.297 373L306.469 314.312L277.406 314.312L267.234 373L255.703 373L267.516 304.75L319.688 304.75L307.828 373ZM338.062 347.641L333.656 373L322.078 373L333.938 304.75L357.562 304.797C364.688 304.797 370.281 306.742 374.344 310.633C378.406 314.523 380.172 319.672 379.641 326.078C379.078 332.703 376.375 337.961 371.531 341.852C366.688 345.742 360.344 347.688 352.5 347.688L338.062 347.641ZM339.703 338.125L352.969 338.219C357.156 338.219 360.586 337.156 363.258 335.031C365.93 332.906 367.531 329.938 368.062 326.125C368.5 322.656 367.852 319.867 366.117 317.758C364.383 315.648 361.766 314.516 358.266 314.359L343.828 314.312L339.703 338.125ZM408.328 373.938C403.891 373.844 399.992 372.781 396.633 370.75C393.273 368.719 390.656 365.773 388.781 361.914C386.906 358.055 385.844 353.672 385.594 348.766C385.375 344.859 385.727 340.297 386.648 335.078C387.57 329.859 389.211 325.102 391.57 320.805C393.93 316.508 396.75 313 400.031 310.281C405.438 305.844 411.688 303.688 418.781 303.812C425.531 303.938 430.914 306.266 434.93 310.797C438.945 315.328 441.141 321.453 441.516 329.172C441.703 333.047 441.352 337.492 440.461 342.508C439.57 347.523 438.039 352.133 435.867 356.336C433.695 360.539 431 364.047 427.781 366.859C422.219 371.734 415.734 374.094 408.328 373.938ZM429.656 337.047L430.078 332.078C430.266 328.672 429.969 325.523 429.188 322.633C428.406 319.742 427.086 317.539 425.227 316.023C423.367 314.508 421.016 313.703 418.172 313.609C414.234 313.484 410.742 314.594 407.695 316.938C404.648 319.281 402.18 322.844 400.289 327.625C398.398 332.406 397.297 338.406 396.984 345.625C396.672 351.344 397.547 355.844 399.609 359.125C401.672 362.406 404.766 364.109 408.891 364.234C414.297 364.391 418.758 362.359 422.273 358.141C425.789 353.922 428.094 347.984 429.188 340.328L429.656 337.047ZM500.953 314.312L480.328 314.312L470.156 373L458.625 373L468.844 314.312L448.359 314.312L450.047 304.75L502.641 304.75L500.953 314.312ZM543.938 342.531L516.75 342.531L513.094 363.531L544.875 363.531L543.234 373L499.875 373L511.688 304.75L554.766 304.75L553.078 314.312L521.625 314.312L518.344 333.156L545.578 333.156L543.938 342.531ZM605.016 304.75L616.969 304.75L605.109 373L593.531 373L601.875 325.094L564.891 373L552.984 373L564.844 304.75L576.422 304.75L568.078 352.703L605.016 304.75ZM671.953 373L660.422 373L665.672 342.672L636.141 342.672L630.891 373L619.312 373L631.172 304.75L642.75 304.75L637.781 333.156L667.312 333.156L672.234 304.75L683.812 304.75L671.953 373Z" fill="#00662E" fill-opacity="1.000000" fill-rule="evenodd"/>
	<rect id="Прямоугольник 1" x="4.312500" width="680.000000" height="408.000000" fill="url(#paint_linear_6_4_0)" fill-opacity="0"/>
</svg>
