<svg width="328.000000" height="256.000000" viewBox="0 0 328 256" fill="none" xmlns="http://www.w3.org/2000/svg" xmlns:xlink="http://www.w3.org/1999/xlink">
	<desc>
			Created with Pixso.
	</desc>
	<defs>
		<linearGradient id="paint_linear_5_17_0" x1="327.999634" y1="0.000046" x2="0.000000" y2="256.000000" gradientUnits="userSpaceOnUse">
			<stop stop-color="#00662E"/>
			<stop offset="1.000000" stop-color="#00E667"/>
		</linearGradient>
	</defs>
	<path id="Слияние" d="M143.091 79C141.07 42.2675 172.899 4.02548 211.801 0.503189L328 0L290 39.3412L290 125.103C287.452 172.385 258.913 205.234 218.654 215.686L258.913 256L204.385 256L131.504 179.88L53.5294 256L0 256L180.915 79L208 105.204L132.044 179.353L206.423 179.353C223.75 174.874 230.671 168.908 237.51 160.938C244.349 152.969 248.212 147.002 251.269 127.094L251.269 75.8303L289.21 39.7516L212.811 39.7516C202.545 41.9961 194.873 47.2034 189.571 53.8408C184.175 60.5953 181.237 68.8482 180.982 79L143.091 79Z" clip-rule="evenodd" fill="url(#paint_linear_5_17_0)" fill-opacity="1.000000" fill-rule="evenodd"/>
</svg>
