<svg width="684.312500" height="511.000000" viewBox="0 0 684.312 511" fill="none" xmlns="http://www.w3.org/2000/svg" xmlns:xlink="http://www.w3.org/1999/xlink">
	<desc>
			Created with Pixso.
	</desc>
	<defs>
		<linearGradient id="paint_linear_5_17_0" x1="506.402344" y1="28.000031" x2="183.312485" y2="284.000031" gradientUnits="userSpaceOnUse">
			<stop stop-color="#00662E"/>
			<stop offset="1.000000" stop-color="#00E667"/>
		</linearGradient>
		<linearGradient id="paint_linear_6_4_0" x1="344.312500" y1="0.000000" x2="344.312500" y2="511.000000" gradientUnits="userSpaceOnUse">
			<stop stop-color="#C4C4C4" stop-opacity="0.000000"/>
			<stop offset="1.000000" stop-color="#C4C4C4" stop-opacity="0.000000"/>
		</linearGradient>
	</defs>
	<path id="Слияние" d="M323.403 106.5C321.403 70 352.903 32 391.403 28.5L506.403 28L468.403 67.5L392.403 67.5C382.242 69.7303 374.65 74.9047 369.403 81.5C364.294 87.9214 361.411 95.7057 360.95 105.201L387.312 131.5L311.606 207.706L385.787 207.706C402.896 203.248 409.729 197.309 416.482 189.376C423.235 181.443 427.05 175.505 430.069 155.688L430.069 104.661L468.312 68L468.312 153.706C465.796 200.771 437.617 233.468 397.864 243.872L437.617 284L383.774 284L311.456 207.857L235.812 284L183.312 284L359.262 106.5L323.403 106.5Z" clip-rule="evenodd" fill="url(#paint_linear_5_17_0)" fill-opacity="1.000000" fill-rule="evenodd"/>
	<path id="АВИСПРОТЕИН" d="M46.1719 357.109L20.625 357.109L12.4688 373L0 373L36.8438 304.75L47.25 304.75L60.4688 373L48.8438 373L46.1719 357.109ZM25.5 347.547L44.625 347.547L39.9844 319.328L25.5 347.547ZM68.5781 373L80.4375 304.75L101.391 304.797Q112.453 304.844 118.008 309.602Q123.562 314.359 122.906 322.797Q122.062 332.734 110.766 337.75Q114.984 339.25 117.281 343.234Q119.578 347.219 119.25 352.75Q118.594 362.125 111.727 367.562Q104.859 373 93.6094 373L68.5781 373ZM85.5 342.203L81.7969 363.531L93.9375 363.578Q99.4219 363.578 103.266 360.672Q107.109 357.766 107.812 352.703Q108.469 347.875 106.359 345.156Q104.25 342.438 99.375 342.25L85.5 342.203ZM87 333.484L97.6406 333.531Q103.359 333.531 106.969 330.812Q110.578 328.094 111.234 323.453Q112.406 314.688 102.375 314.359L90.3281 314.312L87 333.484ZM179.812 304.75L191.766 304.75L179.906 373L168.328 373L176.672 325.094L139.688 373L127.781 373L139.641 304.75L151.219 304.75L142.875 352.703L179.812 304.75ZM248.25 350.734Q246.516 361.422 238.641 367.773Q230.766 374.125 219.469 373.938Q212.953 373.797 208.055 370.844Q203.156 367.891 200.391 362.242Q197.625 356.594 197.297 349.469Q197.016 344.125 198.609 334.914Q200.203 325.703 204.727 318.391Q209.25 311.078 215.836 307.375Q222.422 303.672 230.484 303.812Q240.656 304 246.586 310.211Q252.516 316.422 252.891 327.344L241.406 327.344Q241.172 320.031 238.336 316.773Q235.5 313.516 229.922 313.375Q222.281 313.141 217.125 318.859Q211.969 324.578 210.188 335.5L209.25 341.734L208.828 346.516Q208.453 351.344 209.508 355.586Q210.562 359.828 213.234 362.055Q215.906 364.281 220.031 364.422Q233.109 364.938 236.812 350.828L248.25 350.734ZM307.828 373L296.297 373L306.469 314.312L277.406 314.312L267.234 373L255.703 373L267.516 304.75L319.688 304.75L307.828 373ZM338.062 347.641L333.656 373L322.078 373L333.938 304.75L357.562 304.797Q368.25 304.797 374.344 310.633Q380.438 316.469 379.641 326.078Q378.797 336.016 371.531 341.852Q364.266 347.688 352.5 347.688L338.062 347.641ZM339.703 338.125L352.969 338.219Q359.25 338.219 363.258 335.031Q367.266 331.844 368.062 326.125Q368.719 320.922 366.117 317.758Q363.516 314.594 358.266 314.359L343.828 314.312L339.703 338.125ZM408.328 373.938Q401.672 373.797 396.633 370.75Q391.594 367.703 388.781 361.914Q385.969 356.125 385.594 348.766Q385.266 342.906 386.648 335.078Q388.031 327.25 391.57 320.805Q395.109 314.359 400.031 310.281Q408.141 303.625 418.781 303.812Q428.906 304 434.93 310.797Q440.953 317.594 441.516 329.172Q441.797 334.984 440.461 342.508Q439.125 350.031 435.867 356.336Q432.609 362.641 427.781 366.859Q419.438 374.172 408.328 373.938ZM429.656 337.047L430.078 332.078Q430.359 326.969 429.188 322.633Q428.016 318.297 425.227 316.023Q422.438 313.75 418.172 313.609Q412.266 313.422 407.695 316.938Q403.125 320.453 400.289 327.625Q397.453 334.797 396.984 345.625Q396.516 354.203 399.609 359.125Q402.703 364.047 408.891 364.234Q417 364.469 422.273 358.141Q427.547 351.812 429.188 340.328L429.656 337.047ZM500.953 314.312L480.328 314.312L470.156 373L458.625 373L468.844 314.312L448.359 314.312L450.047 304.75L502.641 304.75L500.953 314.312ZM543.938 342.531L516.75 342.531L513.094 363.531L544.875 363.531L543.234 373L499.875 373L511.688 304.75L554.766 304.75L553.078 314.312L521.625 314.312L518.344 333.156L545.578 333.156L543.938 342.531ZM605.016 304.75L616.969 304.75L605.109 373L593.531 373L601.875 325.094L564.891 373L552.984 373L564.844 304.75L576.422 304.75L568.078 352.703L605.016 304.75ZM671.953 373L660.422 373L665.672 342.672L636.141 342.672L630.891 373L619.312 373L631.172 304.75L642.75 304.75L637.781 333.156L667.312 333.156L672.234 304.75L683.812 304.75L671.953 373Z" fill="#00662E" fill-opacity="1.000000" fill-rule="evenodd"/>
	<rect id="Прямоугольник 1" x="4.312500" width="680.000000" height="511.000000" fill="url(#paint_linear_6_4_0)" fill-opacity="0"/>
</svg>
